 http://kastatic.com/i2/u/1813980/0aq32UMZvX.gif

Cover 
http://www.shotpix.com/images/90640567447483645394.jpg

General
Complete name                            : Rick Ross ft. Wale, Drake - Diced Pineapples (Explicit) 1080p [Sbyky].mp4
Format                                   : MPEG-4
Format profile                           : Base Media / Version 2
Codec ID                                 : mp42
File size                                : 152 MiB
Duration                                 : 4mn 42s
Overall bit rate mode                    : Variable
Overall bit rate                         : 4 529 Kbps
Encoded date                             : UTC 2012-10-10 03:32:49
Tagged date                              : UTC 2012-10-10 03:32:49
gsst                                     : 0
gstd                                     : 282446
gssd                                     : BADC23665HH1357397566556833
gshh                                     :

Video
ID                                       : 1
Format                                   : AVC
Format/Info                              : Advanced Video Codec
Format profile                           : High@L4.0
Format settings, CABAC                   : Yes
Format settings, ReFrames                : 1 frame
Codec ID                                 : avc1
Codec ID/Info                            : Advanced Video Coding
Duration                                 : 4mn 42s
Bit rate                                 : 4 334 Kbps
Maximum bit rate                         : 16.1 Mbps
Width                                    : 1 920 pixels
Height                                   : 1 080 pixels
Display aspect ratio                     : 16:9
Frame rate mode                          : Constant
Frame rate                               : 23.976 fps
Color space                              : YUV
Chroma subsampling                       : 4:2:0
Bit depth                                : 8 bits
Scan type                                : Progressive
Bits/(Pixel*Frame)                       : 0.087
Stream size                              : 146 MiB (96%)
Tagged date                              : UTC 2012-10-10 03:32:49

Audio
ID                                       : 2
Format                                   : AAC
Format/Info                              : Advanced Audio Codec
Format profile                           : LC
Codec ID                                 : 40
Duration                                 : 4mn 42s
Bit rate mode                            : Variable
Bit rate                                 : 192 Kbps
Maximum bit rate                         : 204 Kbps
Channel(s)                               : 2 channels
Channel positions                        : Front: L R
Sampling rate                            : 44.1 KHz
Compression mode                         : Lossy
Stream size                              : 6.46 MiB (4%)
Title                                    : IsoMedia File Produced by Google, 5-11-2011
Encoded date                             : UTC 2012-10-10 03:32:49
Tagged date                              : UTC 2012-10-10 03:32:49

Shared By Sbyky 
http://kastatic.com/i2/u/1813980/bQg62viaEG.gif